<?xml version="1.0" encoding="UTF-8" standalone="no"?>
<svg
   xmlns:dc="http://purl.org/dc/elements/1.1/"
   xmlns:cc="http://creativecommons.org/ns#"
   xmlns:rdf="http://www.w3.org/1999/02/22-rdf-syntax-ns#"
   xmlns:svg="http://www.w3.org/2000/svg"
   xmlns="http://www.w3.org/2000/svg"
   xmlns:sodipodi="http://sodipodi.sourceforge.net/DTD/sodipodi-0.dtd"
   xmlns:inkscape="http://www.inkscape.org/namespaces/inkscape"
   inkscape:version="1.0 (4035a4fb49, 2020-05-01)"
   sodipodi:docname="git-flow3.svg"
   id="svg151"
   stroke-miterlimit="10"
   stroke-linecap="square"
   stroke="none"
   fill="none"
   viewBox="0.0 0.0 960.0 540.0"
   version="1.1">
  <metadata
     id="metadata157">
    <rdf:RDF>
      <cc:Work
         rdf:about="">
        <dc:format>image/svg+xml</dc:format>
        <dc:type
           rdf:resource="http://purl.org/dc/dcmitype/StillImage" />
      </cc:Work>
    </rdf:RDF>
  </metadata>
  <defs
     id="defs155" />
  <sodipodi:namedview
     inkscape:current-layer="svg151"
     inkscape:window-maximized="1"
     inkscape:window-y="-8"
     inkscape:window-x="-8"
     inkscape:cy="270"
     inkscape:cx="480"
     inkscape:zoom="1.2020833"
     showgrid="false"
     id="namedview153"
     inkscape:window-height="1017"
     inkscape:window-width="1920"
     inkscape:pageshadow="2"
     inkscape:pageopacity="0"
     guidetolerance="10"
     gridtolerance="10"
     objecttolerance="10"
     borderopacity="1"
     bordercolor="#666666"
     pagecolor="#ffffff" />
  <clipPath
     id="g91517858c1_0_146.0">
    <path
       id="path2"
       clip-rule="nonzero"
       d="m0 0l960.0 0l0 540.0l-960.0 0l0 -540.0z" />
  </clipPath>
  <path
     fill="#000000"
     fill-opacity="0"
     d="M 364,104 H 596 V 216 H 364 Z"
     fill-rule="evenodd"
     id="path7" />
  <path
     stroke="#595959"
     stroke-width="1"
     stroke-linejoin="round"
     stroke-linecap="butt"
     d="M 364,104 H 596 V 216 H 364 Z"
     fill-rule="evenodd"
     id="path9" />
  <path
     fill="#000000"
     d="m 386.4375,121.045 h 4.375 v 1.64063 h -4.29688 v 1.40625 q 0,5.5625 -5.875,7.9375 l -1.1875,-1.32813 q 5.34375,-1.78125 5.34375,-6.46875 v -1.54687 h -4.89062 l 0.0781,3.78125 h -1.64062 l -0.0781,-3.78125 h -4.15625 V 121.045 h 4.15625 l -0.0625,-3.9375 H 379.75 q 0.75,0.0781 0.0781,0.75 l 0.0781,3.1875 h 4.82812 v -4.53125 h 1.625 q 0.75,0.0781 0.0781,0.75 z m 6.45312,3.78125 v -1.625 h 16.54688 v 1.625 z m 30.13282,-5.48437 q 3.71875,4.67187 5.26562,9.875 l -2,0.65625 q -1.85937,-5.85938 -4.82812,-9.34375 z m -5.64063,1.70312 q 0.59375,0.375 -0.14062,0.67188 -1.34375,4.67187 -4.3125,8.53125 l -1.70313,-1.10938 q 3.26563,-3.9375 4.375,-8.90625 z m 8.90625,-5.78125 q 0.96875,0.8125 2.375,2.29688 l -0.96875,0.89062 q -1.32812,-1.48437 -2.375,-2.375 z m -1.78125,1.10938 q 1.10938,1.03125 2.375,2.51562 l -1.10937,0.82813 q -1.10938,-1.48438 -2.29688,-2.53125 z"
     fill-rule="nonzero"
     id="path11" />
  <path
     fill="#ffffff"
     d="m 412,153.88014 v 0 C 412,148.42349 440.65378,144 476,144 c 35.34622,0 64,4.42349 64,9.88014 v 39.52055 c 0,5.45665 -28.65378,9.88015 -64,9.88015 -35.34622,0 -64,-4.4235 -64,-9.88015 z"
     fill-rule="evenodd"
     id="path21" />
  <path
     fill="#000000"
     fill-opacity="0"
     d="m 540,153.88014 v 0 c 0,5.45665 -28.65378,9.88014 -64,9.88014 -35.34622,0 -64,-4.42349 -64,-9.88014"
     fill-rule="evenodd"
     id="path23" />
  <path
     fill="#000000"
     fill-opacity="0"
     d="m 412,153.88014 v 0 C 412,148.42349 440.65378,144 476,144 c 35.34622,0 64,4.42349 64,9.88014 v 39.52055 c 0,5.45665 -28.65378,9.88015 -64,9.88015 -35.34622,0 -64,-4.4235 -64,-9.88015 z"
     fill-rule="evenodd"
     id="path25" />
  <path
     stroke="#595959"
     stroke-width="1"
     stroke-linejoin="round"
     stroke-linecap="butt"
     d="m 540,153.88014 v 0 c 0,5.45665 -28.65378,9.88014 -64,9.88014 -35.34622,0 -64,-4.42349 -64,-9.88014"
     fill-rule="evenodd"
     id="path27" />
  <path
     stroke="#595959"
     stroke-width="1"
     stroke-linejoin="round"
     stroke-linecap="butt"
     d="m 412,153.88014 v 0 C 412,148.42349 440.65378,144 476,144 c 35.34622,0 64,4.42349 64,9.88014 v 39.52055 c 0,5.45665 -28.65378,9.88015 -64,9.88015 -35.34622,0 -64,-4.4235 -64,-9.88015 z"
     fill-rule="evenodd"
     id="path29" />
  <path
     fill="#000000"
     d="m 462.7246,170.91174 q 0,3.8125 -3.5625,5.48437 l -1.01563,-0.85937 q 3.35938,-1.53125 3.40625,-4.67188 v -5.07812 h 1.0625 q 0.51563,0.0937 0.10938,0.40625 z m -5.23438,1.10937 h -1.17187 v -5.73437 h 1.125 q 0.5,0.0469 0.0469,0.40625 z m 17.46485,3.20313 h -4.40625 q -1.28125,0 -1.28125,-1.3125 v -2.75 h -4.0625 v -1.10938 h 4.0625 v -2.34375 h -3.09375 v -1.10937 h 8.07812 v 1.10937 h -3.8125 v 2.34375 h 5.07813 v 1.10938 h -5.07813 v 2.34375 q 0,0.60937 0.5625,0.60937 h 4.01563 z m 1.88281,-4.01563 v -1.10937 h 11.32813 v 1.10937 z m 14.67969,-1.92187 q 2.48437,0.70312 5.03125,1.92187 l -0.60938,1.17188 q -2.70312,-1.375 -4.42187,-1.82813 v 5.28125 h -1.17188 v -10.15625 h 1.01563 q 0.60937,0.0469 0.15625,0.40625 z"
     fill-rule="nonzero"
     id="path31" />
  <path
     fill="#000000"
     d="m 457.92578,186.91174 q 0,3.8125 -3.5625,5.48437 l -1.01563,-0.85937 q 3.35938,-1.53125 3.40625,-4.67188 v -5.07812 h 1.0625 q 0.51563,0.0937 0.10938,0.40625 z m -5.23438,1.10937 h -1.17187 v -5.73437 h 1.125 q 0.5,0.0469 0.0469,0.40625 z m 17.6211,-5.17187 q 0.40625,0 0.65625,-0.25 0.26562,-0.26563 0.26562,-0.67188 0,-0.40625 -0.26562,-0.65625 -0.25,-0.25 -0.65625,-0.25 -0.40625,0 -0.65625,0.25 -0.25,0.25 -0.25,0.65625 0,0.40625 0.25,0.67188 0.25,0.25 0.65625,0.25 z m 0,0.5 q -0.60938,0 -1.01563,-0.40625 -0.40625,-0.40625 -0.40625,-1.01563 0,-0.60937 0.40625,-1.01562 0.40625,-0.40625 1.01563,-0.40625 0.60937,0 1.01562,0.40625 0.40625,0.40625 0.40625,1.01562 0,0.60938 -0.40625,1.01563 -0.40625,0.40625 -1.01562,0.40625 z m -1.71875,2.84375 q 1.82812,1.9375 2.73437,3.5625 l -1.10937,0.76562 q -1.07813,-1.89062 -2.59375,-3.51562 z m -2.4375,-2.17188 h 4.67187 v 1.10938 h -4.67187 v 7.0625 h -1.17188 v -7.0625 h -4.57812 v -1.10938 h 4.57812 v -2.84375 h 1.0625 q 0.5625,0.0937 0.10938,0.40625 z m -2.70313,2.78125 q 0.3125,0.26563 -0.20312,0.35938 -0.75,1.67187 -1.92188,3.5 l -1.125,-0.60938 q 1.28125,-1.82812 2.14063,-3.85937 z m 19.65625,-1.0625 q -2.59375,4.17188 -8.01562,5.89063 -0.15625,0.60937 -0.51563,0.0625 l -0.70312,-1.125 q 5.53125,-1.21875 8.32812,-5.73438 z m -7.8125,1.375 q -1.53125,-1.125 -2.54687,-1.625 l 0.76562,-1.0625 q 1.26563,0.65625 2.59375,1.625 z m 1.51563,-3 q -1.375,-0.96875 -2.53125,-1.625 l 0.65625,-1.0625 q 1.375,0.76563 2.59375,1.625 z m 4.21875,-3.45312 q 0.85937,0.65625 1.71875,1.57812 l -0.65625,0.65625 q -0.90625,-1.01562 -1.71875,-1.625 z m -1.21875,0.85937 q 0.85937,0.71875 1.71875,1.625 l -0.65625,0.60938 q -0.85938,-0.90625 -1.78125,-1.67188 z m 6.80469,3.76563 q 2.48437,0.70312 5.03125,1.92187 l -0.60938,1.17188 q -2.70312,-1.375 -4.42187,-1.82813 v 5.28125 h -1.17188 v -10.15625 h 1.01563 q 0.60937,0.0469 0.15625,0.40625 z m 13.50781,1.625 q 0,3.8125 -3.5625,5.48437 l -1.01563,-0.85937 q 3.35938,-1.53125 3.40625,-4.67188 v -5.07812 h 1.0625 q 0.51563,0.0937 0.10938,0.40625 z m -5.23438,1.10937 h -1.17187 v -5.73437 h 1.125 q 0.5,0.0469 0.0469,0.40625 z"
     fill-rule="nonzero"
     id="path33" />
  <path
     fill="#ffffff"
     d="M 132,448 168.51706,387.87402 205.03412,448 Z"
     fill-rule="evenodd"
     id="path35" />
  <path
     stroke="#595959"
     stroke-width="1"
     stroke-linejoin="round"
     stroke-linecap="butt"
     d="M 132,448 168.51706,387.87402 205.03412,448 Z"
     fill-rule="evenodd"
     id="path37" />
  <path
     fill="#000000"
     d="m 162.26402,439.8885 5.125,-13.35937 h 1.90625 l 5.46875,13.35937 h -2.01563 l -1.54687,-4.04687 h -5.59375 l -1.46875,4.04687 z m 3.85937,-5.48437 h 4.53125 l -1.40625,-3.70313 q -0.625,-1.6875 -0.9375,-2.76562 -0.26562,1.28125 -0.71875,2.54687 z"
     fill-rule="nonzero"
     id="path39" />
  <path
     fill="#ffffff"
     d="m 140,380 v 0 c 0,-15.46396 12.53603,-28 28,-28 15.46397,0 28,12.53604 28,28 0,15.46396 -12.53603,28 -28,28 -15.46397,0 -28,-12.53604 -28,-28 z"
     fill-rule="evenodd"
     id="path41" />
  <path
     fill="#cbcbcb"
     d="m 156.11296,371.62592 c 0,-1.61081 1.30583,-2.91666 2.91667,-2.91666 1.61083,0 2.91666,1.30585 2.91666,2.91666 0,1.61084 -1.30583,2.91669 -2.91666,2.91669 -1.61084,0 -2.91667,-1.30585 -2.91667,-2.91669 m 17.94075,0 c 0,-1.61081 1.30583,-2.91666 2.91666,-2.91666 1.61084,0 2.91667,1.30585 2.91667,2.91666 0,1.61084 -1.30583,2.91669 -2.91667,2.91669 -1.61083,0 -2.91666,-1.30585 -2.91666,-2.91669"
     fill-rule="evenodd"
     id="path43" />
  <path
     fill="#000000"
     fill-opacity="0"
     d="m 152.82382,392.211 q 15.17618,10.4227 30.31692,0"
     fill-rule="evenodd"
     id="path45" />
  <path
     fill="#000000"
     fill-opacity="0"
     d="m 140,380 v 0 c 0,-15.46396 12.53603,-28 28,-28 15.46397,0 28,12.53604 28,28 0,15.46396 -12.53603,28 -28,28 -15.46397,0 -28,-12.53604 -28,-28 z"
     fill-rule="evenodd"
     id="path47" />
  <path
     stroke="#595959"
     stroke-width="1"
     stroke-linejoin="round"
     stroke-linecap="butt"
     d="m 156.11296,371.62592 c 0,-1.61081 1.30583,-2.91666 2.91667,-2.91666 1.61083,0 2.91666,1.30585 2.91666,2.91666 0,1.61084 -1.30583,2.91669 -2.91666,2.91669 -1.61084,0 -2.91667,-1.30585 -2.91667,-2.91669 m 17.94075,0 c 0,-1.61081 1.30583,-2.91666 2.91666,-2.91666 1.61084,0 2.91667,1.30585 2.91667,2.91666 0,1.61084 -1.30583,2.91669 -2.91667,2.91669 -1.61083,0 -2.91666,-1.30585 -2.91666,-2.91669"
     fill-rule="evenodd"
     id="path49" />
  <path
     stroke="#595959"
     stroke-width="1"
     stroke-linejoin="round"
     stroke-linecap="butt"
     d="m 152.82382,392.211 q 15.17618,10.4227 30.31692,0"
     fill-rule="evenodd"
     id="path51" />
  <path
     stroke="#595959"
     stroke-width="1"
     stroke-linejoin="round"
     stroke-linecap="butt"
     d="m 140,380 v 0 c 0,-15.46396 12.53603,-28 28,-28 15.46397,0 28,12.53604 28,28 0,15.46396 -12.53603,28 -28,28 -15.46397,0 -28,-12.53604 -28,-28 z"
     fill-rule="evenodd"
     id="path53" />
  <path
     fill="#000000"
     fill-opacity="0"
     d="M 220,344 H 452 V 456 H 220 Z"
     fill-rule="evenodd"
     id="path55" />
  <path
     stroke="#595959"
     stroke-width="1"
     stroke-linejoin="round"
     stroke-linecap="butt"
     d="M 220,344 H 452 V 456 H 220 Z"
     fill-rule="evenodd"
     id="path57" />
  <path
     fill="#000000"
     d="m 244.73438,359.71686 q -0.89063,0 -1.48438,-0.59375 -0.59375,-0.59375 -0.59375,-1.48438 0,-0.89062 0.59375,-1.48437 0.59375,-0.59375 1.48438,-0.59375 0.89062,0 1.48437,0.59375 0.59375,0.59375 0.59375,1.48437 0,0.89063 -0.59375,1.48438 -0.59375,0.59375 -1.48437,0.59375 z m 0,-0.75 q 0.59375,0 0.96875,-0.375 0.375,-0.35938 0.375,-0.95313 0,-0.59375 -0.375,-0.96875 -0.375,-0.375 -0.96875,-0.375 -0.59375,0 -0.96875,0.375 -0.35938,0.375 -0.35938,0.96875 0,0.59375 0.35938,0.95313 0.375,0.375 0.96875,0.375 z m -2.96875,0.375 q 3.71875,4.67187 5.26562,9.875 l -2,0.65625 q -1.85937,-5.85938 -4.82812,-9.34375 z m -5.64063,1.70312 q 0.59375,0.375 -0.14062,0.67188 -1.34375,4.67187 -4.3125,8.53125 l -1.70313,-1.10938 q 3.26563,-3.9375 4.375,-8.90625 z m 21.59375,4.82813 q 1.71875,-2.29688 2.3125,-7.71875 l 1.84375,0.29687 q 0.67188,0.14063 -0.0625,0.67188 -0.45312,4.75 -2.75,8.01562 -1.70312,2.4375 -6.39062,4.89063 l -1.32813,-1.32813 q 4.23438,-1.9375 6.375,-4.82812 z m -6.07812,-2.45313 q -1.34375,-2.89062 -2.59375,-4.375 l 1.625,-0.89062 q 1.26562,1.5625 2.67187,4.29687 z m 23.08594,-2.07812 h -10.32813 v -1.625 h 12.03125 v 10.60937 h -1.70312 v -0.8125 h -10.32813 v -1.64062 h 10.32813 z m 19.14062,0.96875 q -3.9375,8.15625 -13.20312,8.60937 -0.375,0.96875 -0.75,0.15625 l -0.59375,-1.9375 q 9.65625,-0.21875 12.98437,-7.9375 z m -10.46875,0 q -2,-1.85938 -3.78125,-3.04688 l 1.26563,-1.5625 q 1.5625,0.96875 3.9375,3.20313 z"
     fill-rule="nonzero"
     id="path59" />
  <path
     fill="#ffffff"
     d="m 268,393.88013 v 0 C 268,388.4235 296.65378,384 332,384 c 35.34622,0 64,4.4235 64,9.88013 v 39.52057 c 0,5.45667 -28.65378,9.88016 -64,9.88016 -35.34622,0 -64,-4.4235 -64,-9.88016 z"
     fill-rule="evenodd"
     id="path61" />
  <path
     fill="#000000"
     fill-opacity="0"
     d="m 396,393.88013 v 0 c 0,5.45666 -28.65378,9.88016 -64,9.88016 -35.34622,0 -64,-4.4235 -64,-9.88016"
     fill-rule="evenodd"
     id="path63" />
  <path
     fill="#000000"
     fill-opacity="0"
     d="m 268,393.88013 v 0 C 268,388.4235 296.65378,384 332,384 c 35.34622,0 64,4.4235 64,9.88013 v 39.52057 c 0,5.45667 -28.65378,9.88016 -64,9.88016 -35.34622,0 -64,-4.4235 -64,-9.88016 z"
     fill-rule="evenodd"
     id="path65" />
  <path
     stroke="#595959"
     stroke-width="1"
     stroke-linejoin="round"
     stroke-linecap="butt"
     d="m 396,393.88013 v 0 c 0,5.45666 -28.65378,9.88016 -64,9.88016 -35.34622,0 -64,-4.4235 -64,-9.88016"
     fill-rule="evenodd"
     id="path67" />
  <path
     stroke="#595959"
     stroke-width="1"
     stroke-linejoin="round"
     stroke-linecap="butt"
     d="m 268,393.88013 v 0 C 268,388.4235 296.65378,384 332,384 c 35.34622,0 64,4.4235 64,9.88013 v 39.52057 c 0,5.45667 -28.65378,9.88016 -64,9.88016 -35.34622,0 -64,-4.4235 -64,-9.88016 z"
     fill-rule="evenodd"
     id="path69" />
  <path
     fill="#000000"
     d="m 317.83203,414.52112 h -1.17188 v -0.5625 h -5.625 v 0.8125 h -1.17187 v -7.92188 h 7.96875 z m -6.79688,-6.5625 v 4.875 h 5.625 v -4.875 z m 9.08204,3.25 v -1.10938 h 11.32812 v 1.10938 z m 20.25781,-2.23438 -2.89063,0.10938 q -0.29687,4.3125 -4.01562,6.8125 l -0.85938,-0.875 q 3.5,-2.32813 3.70313,-5.9375 l -3.59375,0.0937 -0.10938,-1.01563 3.76563,-0.0937 v -2.84375 h 1.0625 q 0.5625,0.0937 0.0937,0.40625 v 2.4375 l 4.01562,-0.15625 v 3.15625 q 0,2.48438 -0.45312,3.5 -0.45313,1.01563 -1.9375,1.01563 h -1.21875 l -0.14063,-1.26563 q 0.75,0.0937 1.3125,0.0937 0.76563,0 0.96875,-0.5 0.29688,-0.8125 0.29688,-2.84375 z m 9.96484,4.9375 q 2.23438,-0.875 4.10938,-3.45312 l 0.70312,0.95312 q -1.92187,2.64063 -4.875,3.8125 l -0.40625,0.20313 -0.8125,-0.60938 0.10938,-0.25 v -8.17187 h 1.0625 q 0.45312,0.0937 0.10937,0.40625 z m -6.8125,1.35938 q 2.54688,-2.4375 2.54688,-6.03125 v -2.29688 h 1.0625 q 0.45312,0.10938 0.0937,0.40625 v 1.82813 q 0,4.26562 -2.6875,6.76562 z"
     fill-rule="nonzero"
     id="path71" />
  <path
     fill="#000000"
     d="m 313.92578,426.91174 q 0,3.8125 -3.5625,5.48437 l -1.01563,-0.85937 q 3.35938,-1.53125 3.40625,-4.67188 v -5.07812 h 1.0625 q 0.51563,0.0937 0.10938,0.40625 z m -5.23438,1.10937 h -1.17187 v -5.73437 h 1.125 q 0.5,0.0469 0.0469,0.40625 z m 17.6211,-5.17187 q 0.40625,0 0.65625,-0.25 0.26562,-0.26563 0.26562,-0.67188 0,-0.40625 -0.26562,-0.65625 -0.25,-0.25 -0.65625,-0.25 -0.40625,0 -0.65625,0.25 -0.25,0.25 -0.25,0.65625 0,0.40625 0.25,0.67188 0.25,0.25 0.65625,0.25 z m 0,0.5 q -0.60938,0 -1.01563,-0.40625 -0.40625,-0.40625 -0.40625,-1.01563 0,-0.60937 0.40625,-1.01562 0.40625,-0.40625 1.01563,-0.40625 0.60937,0 1.01562,0.40625 0.40625,0.40625 0.40625,1.01562 0,0.60938 -0.40625,1.01563 -0.40625,0.40625 -1.01562,0.40625 z m -1.71875,2.84375 q 1.82812,1.9375 2.73437,3.5625 l -1.10937,0.76562 q -1.07813,-1.89062 -2.59375,-3.51562 z m -2.4375,-2.17188 h 4.67187 v 1.10938 h -4.67187 v 7.0625 h -1.17188 v -7.0625 h -4.57812 v -1.10938 h 4.57812 v -2.84375 h 1.0625 q 0.5625,0.0937 0.10938,0.40625 z m -2.70313,2.78125 q 0.3125,0.26563 -0.20312,0.35938 -0.75,1.67187 -1.92188,3.5 l -1.125,-0.60938 q 1.28125,-1.82812 2.14063,-3.85937 z m 19.65625,-1.0625 q -2.59375,4.17188 -8.01562,5.89063 -0.15625,0.60937 -0.51563,0.0625 l -0.70312,-1.125 q 5.53125,-1.21875 8.32812,-5.73438 z m -7.8125,1.375 q -1.53125,-1.125 -2.54687,-1.625 l 0.76562,-1.0625 q 1.26563,0.65625 2.59375,1.625 z m 1.51563,-3 q -1.375,-0.96875 -2.53125,-1.625 l 0.65625,-1.0625 q 1.375,0.76563 2.59375,1.625 z m 4.21875,-3.45312 q 0.85937,0.65625 1.71875,1.57812 l -0.65625,0.65625 q -0.90625,-1.01562 -1.71875,-1.625 z m -1.21875,0.85937 q 0.85937,0.71875 1.71875,1.625 l -0.65625,0.60938 q -0.85938,-0.90625 -1.78125,-1.67188 z m 6.80469,3.76563 q 2.48437,0.70312 5.03125,1.92187 l -0.60938,1.17188 q -2.70312,-1.375 -4.42187,-1.82813 v 5.28125 h -1.17188 v -10.15625 h 1.01563 q 0.60937,0.0469 0.15625,0.40625 z m 13.50781,1.625 q 0,3.8125 -3.5625,5.48437 l -1.01563,-0.85937 q 3.35938,-1.53125 3.40625,-4.67188 v -5.07812 h 1.0625 q 0.51563,0.0937 0.10938,0.40625 z m -5.23438,1.10937 h -1.17187 v -5.73437 h 1.125 q 0.5,0.0469 0.0469,0.40625 z"
     fill-rule="nonzero"
     id="path73" />
  <path
     fill="#ffffff"
     d="M 508,448 544.51709,387.87402 581.03412,448 Z"
     fill-rule="evenodd"
     id="path75" />
  <path
     stroke="#595959"
     stroke-width="1"
     stroke-linejoin="round"
     stroke-linecap="butt"
     d="M 508,448 544.51709,387.87402 581.03412,448 Z"
     fill-rule="evenodd"
     id="path77" />
  <path
     fill="#000000"
     d="m 539.65466,439.8885 v -13.35937 h 5.01563 q 1.53125,0 2.45312,0.40625 0.92188,0.40625 1.4375,1.25 0.53125,0.84375 0.53125,1.76562 0,0.85938 -0.46875,1.625 -0.45312,0.75 -1.39062,1.20313 1.20312,0.35937 1.85937,1.21875 0.65625,0.85937 0.65625,2.01562 0,0.9375 -0.40625,1.75 -0.39062,0.79688 -0.98437,1.23438 -0.57813,0.4375 -1.45313,0.67187 -0.875,0.21875 -2.15625,0.21875 z m 1.78125,-7.75 h 2.875 q 1.1875,0 1.6875,-0.14062 0.67188,-0.20313 1.01563,-0.67188 0.34375,-0.46875 0.34375,-1.17187 0,-0.65625 -0.32813,-1.15625 -0.3125,-0.51563 -0.90625,-0.70313 -0.59375,-0.1875 -2.03125,-0.1875 h -2.65625 z m 0,6.17188 h 3.3125 q 0.85938,0 1.20313,-0.0625 0.60937,-0.10938 1.01562,-0.35938 0.42188,-0.26562 0.6875,-0.75 0.26563,-0.48437 0.26563,-1.125 0,-0.75 -0.39063,-1.29687 -0.375,-0.54688 -1.0625,-0.76563 -0.67187,-0.23437 -1.95312,-0.23437 h -3.07813 z"
     fill-rule="nonzero"
     id="path79" />
  <path
     fill="#ffffff"
     d="m 516,380 v 0 c 0,-15.46396 12.53601,-28 28,-28 15.46399,0 28,12.53604 28,28 0,15.46396 -12.53601,28 -28,28 -15.46399,0 -28,-12.53604 -28,-28 z"
     fill-rule="evenodd"
     id="path81" />
  <path
     fill="#cbcbcb"
     d="m 532.113,371.62592 c 0,-1.61081 1.30585,-2.91666 2.91663,-2.91666 1.61084,0 2.91668,1.30585 2.91668,2.91666 0,1.61084 -1.30584,2.91669 -2.91668,2.91669 -1.61078,0 -2.91663,-1.30585 -2.91663,-2.91669 m 17.94074,0 c 0,-1.61081 1.30584,-2.91666 2.91668,-2.91666 1.61078,0 2.91663,1.30585 2.91663,2.91666 0,1.61084 -1.30585,2.91669 -2.91663,2.91669 -1.61084,0 -2.91668,-1.30585 -2.91668,-2.91669"
     fill-rule="evenodd"
     id="path83" />
  <path
     fill="#000000"
     fill-opacity="0"
     d="m 528.8238,392.211 q 15.17621,10.4227 30.31696,0"
     fill-rule="evenodd"
     id="path85" />
  <path
     fill="#000000"
     fill-opacity="0"
     d="m 516,380 v 0 c 0,-15.46396 12.53601,-28 28,-28 15.46399,0 28,12.53604 28,28 0,15.46396 -12.53601,28 -28,28 -15.46399,0 -28,-12.53604 -28,-28 z"
     fill-rule="evenodd"
     id="path87" />
  <path
     stroke="#595959"
     stroke-width="1"
     stroke-linejoin="round"
     stroke-linecap="butt"
     d="m 532.113,371.62592 c 0,-1.61081 1.30585,-2.91666 2.91663,-2.91666 1.61084,0 2.91668,1.30585 2.91668,2.91666 0,1.61084 -1.30584,2.91669 -2.91668,2.91669 -1.61078,0 -2.91663,-1.30585 -2.91663,-2.91669 m 17.94074,0 c 0,-1.61081 1.30584,-2.91666 2.91668,-2.91666 1.61078,0 2.91663,1.30585 2.91663,2.91666 0,1.61084 -1.30585,2.91669 -2.91663,2.91669 -1.61084,0 -2.91668,-1.30585 -2.91668,-2.91669"
     fill-rule="evenodd"
     id="path89" />
  <path
     stroke="#595959"
     stroke-width="1"
     stroke-linejoin="round"
     stroke-linecap="butt"
     d="m 528.8238,392.211 q 15.17621,10.4227 30.31696,0"
     fill-rule="evenodd"
     id="path91" />
  <path
     stroke="#595959"
     stroke-width="1"
     stroke-linejoin="round"
     stroke-linecap="butt"
     d="m 516,380 v 0 c 0,-15.46396 12.53601,-28 28,-28 15.46399,0 28,12.53604 28,28 0,15.46396 -12.53601,28 -28,28 -15.46399,0 -28,-12.53604 -28,-28 z"
     fill-rule="evenodd"
     id="path93" />
  <path
     fill="#000000"
     fill-opacity="0"
     d="M 596,344 H 828 V 456 H 596 Z"
     fill-rule="evenodd"
     id="path95" />
  <path
     stroke="#595959"
     stroke-width="1"
     stroke-linejoin="round"
     stroke-linecap="butt"
     d="M 596,344 H 828 V 456 H 596 Z"
     fill-rule="evenodd"
     id="path97" />
  <path
     fill="#000000"
     d="m 768.90234,359.71686 q -0.89063,0 -1.48438,-0.59375 -0.59375,-0.59375 -0.59375,-1.48438 0,-0.89062 0.59375,-1.48437 0.59375,-0.59375 1.48438,-0.59375 0.89062,0 1.48437,0.59375 0.59375,0.59375 0.59375,1.48437 0,0.89063 -0.59375,1.48438 -0.59375,0.59375 -1.48437,0.59375 z m 0,-0.75 q 0.59375,0 0.96875,-0.375 0.375,-0.35938 0.375,-0.95313 0,-0.59375 -0.375,-0.96875 -0.375,-0.375 -0.96875,-0.375 -0.59375,0 -0.96875,0.375 -0.35938,0.375 -0.35938,0.96875 0,0.59375 0.35938,0.95313 0.375,0.375 0.96875,0.375 z m -2.96875,0.375 q 3.71875,4.67187 5.26562,9.875 l -2,0.65625 q -1.85937,-5.85938 -4.82812,-9.34375 z m -5.64063,1.70312 q 0.59375,0.375 -0.14062,0.67188 -1.34375,4.67187 -4.3125,8.53125 l -1.70313,-1.10938 q 3.26563,-3.9375 4.375,-8.90625 z m 21.59375,4.82813 q 1.71875,-2.29688 2.3125,-7.71875 l 1.84375,0.29687 q 0.67188,0.14063 -0.0625,0.67188 -0.45312,4.75 -2.75,8.01562 -1.70312,2.4375 -6.39062,4.89063 l -1.32813,-1.32813 q 4.23438,-1.9375 6.375,-4.82812 z m -6.07812,-2.45313 q -1.34375,-2.89062 -2.59375,-4.375 l 1.625,-0.89062 q 1.26562,1.5625 2.67187,4.29687 z m 23.08594,-2.07812 H 788.5664 v -1.625 h 12.03125 v 10.60937 h -1.70312 v -0.8125 H 788.5664 v -1.64062 h 10.32813 z m 19.14062,0.96875 q -3.9375,8.15625 -13.20312,8.60937 -0.375,0.96875 -0.75,0.15625 l -0.59375,-1.9375 q 9.65625,-0.21875 12.98437,-7.9375 z m -10.46875,0 q -2,-1.85938 -3.78125,-3.04688 l 1.26563,-1.5625 q 1.5625,0.96875 3.9375,3.20313 z"
     fill-rule="nonzero"
     id="path99" />
  <path
     fill="#ffffff"
     d="m 644,393.88013 v 0 C 644,388.4235 672.65375,384 708,384 c 35.34625,0 64,4.4235 64,9.88013 v 39.52057 c 0,5.45667 -28.65375,9.88016 -64,9.88016 -35.34625,0 -64,-4.4235 -64,-9.88016 z"
     fill-rule="evenodd"
     id="path101" />
  <path
     fill="#000000"
     fill-opacity="0"
     d="m 772,393.88013 v 0 c 0,5.45666 -28.65375,9.88016 -64,9.88016 -35.34625,0 -64,-4.4235 -64,-9.88016"
     fill-rule="evenodd"
     id="path103" />
  <path
     fill="#000000"
     fill-opacity="0"
     d="m 644,393.88013 v 0 C 644,388.4235 672.65375,384 708,384 c 35.34625,0 64,4.4235 64,9.88013 v 39.52057 c 0,5.45667 -28.65375,9.88016 -64,9.88016 -35.34625,0 -64,-4.4235 -64,-9.88016 z"
     fill-rule="evenodd"
     id="path105" />
  <path
     stroke="#595959"
     stroke-width="1"
     stroke-linejoin="round"
     stroke-linecap="butt"
     d="m 772,393.88013 v 0 c 0,5.45666 -28.65375,9.88016 -64,9.88016 -35.34625,0 -64,-4.4235 -64,-9.88016"
     fill-rule="evenodd"
     id="path107" />
  <path
     stroke="#595959"
     stroke-width="1"
     stroke-linejoin="round"
     stroke-linecap="butt"
     d="m 644,393.88013 v 0 C 644,388.4235 672.65375,384 708,384 c 35.34625,0 64,4.4235 64,9.88013 v 39.52057 c 0,5.45667 -28.65375,9.88016 -64,9.88016 -35.34625,0 -64,-4.4235 -64,-9.88016 z"
     fill-rule="evenodd"
     id="path109" />
  <path
     fill="#000000"
     d="m 693.83203,414.52112 h -1.17187 v -0.5625 h -5.625 v 0.8125 h -1.17188 v -7.92188 h 7.96875 z m -6.79687,-6.5625 v 4.875 h 5.625 v -4.875 z m 9.08203,3.25 v -1.10938 h 11.32812 v 1.10938 z m 20.25781,-2.23438 -2.89063,0.10938 q -0.29687,4.3125 -4.01562,6.8125 l -0.85938,-0.875 q 3.5,-2.32813 3.70313,-5.9375 l -3.59375,0.0937 -0.10938,-1.01563 3.76563,-0.0937 v -2.84375 h 1.0625 q 0.5625,0.0937 0.0937,0.40625 v 2.4375 l 4.01562,-0.15625 v 3.15625 q 0,2.48438 -0.45312,3.5 -0.45313,1.01563 -1.9375,1.01563 h -1.21875 l -0.14063,-1.26563 q 0.75,0.0937 1.3125,0.0937 0.76563,0 0.96875,-0.5 0.29688,-0.8125 0.29688,-2.84375 z m 9.96484,4.9375 q 2.23438,-0.875 4.10938,-3.45312 l 0.70312,0.95312 q -1.92187,2.64063 -4.875,3.8125 l -0.40625,0.20313 -0.8125,-0.60938 0.10938,-0.25 v -8.17187 h 1.0625 q 0.45312,0.0937 0.10937,0.40625 z m -6.8125,1.35938 q 2.54688,-2.4375 2.54688,-6.03125 v -2.29688 h 1.0625 q 0.45312,0.10938 0.0937,0.40625 v 1.82813 q 0,4.26562 -2.6875,6.76562 z"
     fill-rule="nonzero"
     id="path111" />
  <path
     fill="#000000"
     d="m 689.9258,426.91174 q 0,3.8125 -3.5625,5.48437 l -1.01563,-0.85937 q 3.35938,-1.53125 3.40625,-4.67188 v -5.07812 h 1.0625 q 0.51563,0.0937 0.10938,0.40625 z m -5.23438,1.10937 h -1.17187 v -5.73437 h 1.125 q 0.5,0.0469 0.0469,0.40625 z m 17.6211,-5.17187 q 0.40625,0 0.65625,-0.25 0.26562,-0.26563 0.26562,-0.67188 0,-0.40625 -0.26562,-0.65625 -0.25,-0.25 -0.65625,-0.25 -0.40625,0 -0.65625,0.25 -0.25,0.25 -0.25,0.65625 0,0.40625 0.25,0.67188 0.25,0.25 0.65625,0.25 z m 0,0.5 q -0.60938,0 -1.01563,-0.40625 -0.40625,-0.40625 -0.40625,-1.01563 0,-0.60937 0.40625,-1.01562 0.40625,-0.40625 1.01563,-0.40625 0.60937,0 1.01562,0.40625 0.40625,0.40625 0.40625,1.01562 0,0.60938 -0.40625,1.01563 -0.40625,0.40625 -1.01562,0.40625 z m -1.71875,2.84375 q 1.82812,1.9375 2.73437,3.5625 l -1.10937,0.76562 q -1.07813,-1.89062 -2.59375,-3.51562 z m -2.4375,-2.17188 h 4.67187 v 1.10938 h -4.67187 v 7.0625 h -1.17188 v -7.0625 h -4.57812 v -1.10938 h 4.57812 v -2.84375 h 1.0625 q 0.5625,0.0937 0.10938,0.40625 z m -2.70313,2.78125 q 0.3125,0.26563 -0.20312,0.35938 -0.75,1.67187 -1.92188,3.5 l -1.125,-0.60938 q 1.28125,-1.82812 2.14063,-3.85937 z m 19.65625,-1.0625 q -2.59375,4.17188 -8.01562,5.89063 -0.15625,0.60937 -0.51563,0.0625 l -0.70312,-1.125 q 5.53125,-1.21875 8.32812,-5.73438 z m -7.8125,1.375 q -1.53125,-1.125 -2.54687,-1.625 l 0.76562,-1.0625 q 1.26563,0.65625 2.59375,1.625 z m 1.51563,-3 q -1.375,-0.96875 -2.53125,-1.625 l 0.65625,-1.0625 q 1.375,0.76563 2.59375,1.625 z m 4.21875,-3.45312 q 0.85937,0.65625 1.71875,1.57812 l -0.65625,0.65625 q -0.90625,-1.01562 -1.71875,-1.625 z m -1.21875,0.85937 q 0.85937,0.71875 1.71875,1.625 l -0.65625,0.60938 q -0.85938,-0.90625 -1.78125,-1.67188 z m 6.80469,3.76563 q 2.48437,0.70312 5.03125,1.92187 l -0.60938,1.17188 q -2.70312,-1.375 -4.42187,-1.82813 v 5.28125 h -1.17188 v -10.15625 h 1.01563 q 0.60937,0.0469 0.15625,0.40625 z m 13.50781,1.625 q 0,3.8125 -3.5625,5.48437 l -1.01563,-0.85937 q 3.35938,-1.53125 3.40625,-4.67188 v -5.07812 h 1.0625 q 0.51563,0.0937 0.10938,0.40625 z m -5.23438,1.10937 h -1.17187 v -5.73437 h 1.125 q 0.5,0.0469 0.0469,0.40625 z"
     fill-rule="nonzero"
     id="path113" />
  <path
     fill="#000000"
     fill-opacity="0"
     d="M 360,368 448,224"
     fill-rule="evenodd"
     id="path115" />
  <path
     stroke="#595959"
     stroke-width="3"
     stroke-linejoin="round"
     stroke-linecap="butt"
     d="M 360,368 438.61389,239.35907"
     fill-rule="evenodd"
     id="path117" />
  <path
     fill="#595959"
     stroke="#595959"
     stroke-width="3"
     stroke-linecap="butt"
     d="m 442.84207,241.94296 2.871,-14.20071 -11.32736,9.03294 z"
     fill-rule="evenodd"
     id="path119" />
  <path
     fill="#000000"
     fill-opacity="0"
     d="m 248,264 h 120 v 32 H 248 Z"
     fill-rule="evenodd"
     id="path121" />
  <path
     fill="#000000"
     d="m 280.03125,262.63873 q 2.67187,2.67187 2.67187,6.45312 0,3.78125 -2.67187,6.45313 -2.67188,2.67187 -6.45313,2.67187 -3.78125,0 -6.45312,-2.67187 -2.67188,-2.67188 -2.67188,-6.45313 0,-3.78125 2.67188,-6.45312 2.67187,-2.67188 6.45312,-2.67188 3.78125,0 6.45313,2.67188 z m -0.51563,12.39062 q 2.45313,-2.45312 2.45313,-5.9375 0,-3.48437 -2.45313,-5.9375 -2.45312,-2.45312 -5.9375,-2.45312 -3.48437,0 -5.9375,2.45312 -2.45312,2.45313 -2.45312,5.9375 0,3.48438 2.45312,5.9375 2.45313,2.45313 5.9375,2.45313 3.48438,0 5.9375,-2.45313 z m -1.9375,-12.17187 v 1.10937 l -4.67187,11.35938 H 271.125 l 4.60937,-10.84375 h -6.39062 v -1.625 z m 6.53125,12.76562 q 3.26563,-2.29687 4.3125,-5.5625 h -4.23437 v -1.42187 h 7.5 v -1.625 h -5.34375 v -1.40625 h 5.34375 v -1.34375 h -6.53125 v -1.40625 h 3.9375 q -0.375,-0.59375 -1.42188,-1.34375 l 1.26563,-0.73438 q 1.34375,0.96875 2.07812,2.07813 h 2.96875 l 1.34375,-2.375 1.40625,0.51562 q 0.4375,0.21875 -0.15625,0.375 l -1.03125,1.48438 h 4.15625 v 1.40625 h -6.53125 v 1.34375 h 5.42188 v 1.40625 h -5.42188 v 1.625 h 7.5625 v 1.42187 H 290.125 q -0.21875,0.89063 -0.51563,1.40625 h 8.98438 v 1.40625 h -4.15625 v 2.67188 h 6 v 1.42187 H 287.375 v -1.42187 h 5.57812 v -2.67188 h -3.9375 q -1.34375,2.29688 -3.71875,4.09375 z m 32.4375,-7.57812 -0.29687,6.01562 q -0.14063,3.125 -2.15625,3.125 H 311.875 l -0.21875,-1.64062 H 313.5 q 0.96875,0 1.04687,-1.26563 l 0.29688,-4.8125 h -4.07813 l -0.0781,0.59375 q -0.51563,4.07813 -5.85938,7.5 l -1.125,-1.42187 q 4.82813,-2.75 5.34375,-5.78125 l 0.15625,-0.89063 H 306.375 v -1.42187 z M 309.875,262.1856 q -1.78125,3.85938 -5.71875,7.04688 l -1.1875,-1.40625 q 3.85937,-2.67188 5.64062,-6.90625 l 1.40625,0.89062 q 0.45313,0.29688 -0.14062,0.375 z m 9.20312,7.04688 q -4.09375,-2.375 -6.01562,-7.78125 l 1.40625,-0.59375 q 1.78125,4.75 5.71875,6.82812 z m 4.8125,-6.29688 h -1.48437 v -1.42187 h 9.57812 v 1.42187 h -2.21875 v 14.39063 h -1.48437 v -3.78125 q -3.125,1.10937 -5.28125,1.625 -0.35938,0.53125 -0.4375,0.23437 l -0.45313,-1.85937 Q 323,273.38873 323.89062,273.2481 Z m 6.39063,12.90625 q 2.29687,-1.5625 3.5625,-3.26562 -1.85938,-2.75 -2.375,-7.34375 h -0.89063 v -1.40625 h 6.375 l 0.29688,-0.375 1.26562,1.1875 -0.375,0.21875 q -0.51562,4.53125 -2.375,7.79687 1.1875,1.5625 3.125,2.75 L 338,276.96685 q -1.9375,-1.5 -3.1875,-3.04687 -1.48438,1.70312 -3.5,3.34375 z m 4.45312,-4.53125 q 1.1875,-1.78125 1.78125,-6.07812 H 332.875 q 0.375,3.48437 1.85937,6.07812 z m -9.35937,-8.375 v 2.51563 h 2.90625 v -2.51563 z m 0,3.70313 v 2.45312 h 2.90625 v -2.45312 z m 0,3.64062 v 2.67188 q 1.42187,-0.29688 2.90625,-0.8125 v -1.85938 z m 15.59375,-0.59375 q 2.8125,-1.85937 4.75,-5.26562 l 1.10937,0.89062 q 0.29688,0.21875 -0.21875,0.35938 -0.96875,1.5625 -1.40625,2.15625 v 9.79687 h -1.48437 v -8.23437 q -0.82813,0.8125 -1.9375,1.70312 z m 0.4375,-5.20312 q 2.3125,-1.48438 3.71875,-3.85938 l 1.1875,0.89063 q 0.29687,0.29687 -0.21875,0.375 -1.71875,2.67187 -3.85938,4.01562 z m 7.875,8.01562 q 0.96875,0.67188 2.29687,2.375 l -1.26562,1.04688 q -1.10938,-1.5625 -2.21875,-2.53125 z m -3.125,-0.35937 v -1.42188 h 7.57812 v -1.25 h -7.5 v -1.42187 h 11.73438 v 1.42187 h -2.75 v 1.25 h 2.67187 v 1.42188 h -2.67187 v 4.23437 q 0,1.10938 -1.04688,1.10938 h -1.70312 l -0.29688,-1.40625 h 1.26563 q 0.29687,0 0.29687,-0.3125 v -3.625 z m 8.54687,-7.57813 h -5.34375 v 1.34375 h 5.34375 z m 0,-2.375 h -5.34375 v 1.1875 h 5.34375 z m 1.25,-1.1875 v 6.09375 h -7.85937 v -6.09375 z"
     fill-rule="nonzero"
     id="path123" />
  <path
     fill="#000000"
     d="m 305.99365,298.71686 1.59375,0.23437 q 0.10937,0.75 0.5625,1.07813 0.60937,0.45312 1.67187,0.45312 1.14063,0 1.75,-0.45312 0.625,-0.45313 0.84375,-1.26563 0.125,-0.5 0.10938,-2.10937 -1.0625,1.26562 -2.67188,1.26562 -2,0 -3.09375,-1.4375 -1.09375,-1.4375 -1.09375,-3.45312 0,-1.39063 0.5,-2.5625 0.51563,-1.17188 1.45313,-1.79688 0.95312,-0.64062 2.25,-0.64062 1.70312,0 2.8125,1.375 v -1.15625 h 1.51562 v 8.35937 q 0,2.26563 -0.46875,3.20313 -0.45312,0.9375 -1.45312,1.48437 -0.98438,0.54688 -2.45313,0.54688 -1.71875,0 -2.79687,-0.78125 -1.0625,-0.76563 -1.03125,-2.34375 z m 1.35937,-5.8125 q 0,1.90625 0.75,2.78125 0.76563,0.875 1.90625,0.875 1.125,0 1.89063,-0.85938 0.76562,-0.875 0.76562,-2.73437 0,-1.78125 -0.79687,-2.67188 -0.78125,-0.90625 -1.89063,-0.90625 -1.09375,0 -1.85937,0.89063 -0.76563,0.875 -0.76563,2.625 z m 9.32886,-6.45313 v -1.89062 h 1.64063 v 1.89062 z m 0,11.46875 v -9.67187 h 1.64063 v 9.67187 z m 7.72293,-1.46875 0.23438,1.45313 q -0.6875,0.14062 -1.23438,0.14062 -0.89062,0 -1.39062,-0.28125 -0.48438,-0.28125 -0.6875,-0.73437 -0.20313,-0.46875 -0.20313,-1.9375 v -5.57813 h -1.20312 v -1.26562 h 1.20312 v -2.39063 l 1.625,-0.98437 v 3.375 h 1.65625 v 1.26562 h -1.65625 v 5.67188 q 0,0.6875 0.0781,0.89062 0.0937,0.20313 0.28125,0.32813 0.20312,0.10937 0.57812,0.10937 0.26563,0 0.71875,-0.0625 z m 6.78849,5.17188 v -13.375 h 1.48437 v 1.25 q 0.53125,-0.73438 1.1875,-1.09375 0.67188,-0.375 1.625,-0.375 1.23438,0 2.17188,0.64062 0.95312,0.625 1.4375,1.79688 0.48437,1.15625 0.48437,2.54687 0,1.48438 -0.53125,2.67188 -0.53125,1.1875 -1.54687,1.82812 -1.01563,0.625 -2.14063,0.625 -0.8125,0 -1.46875,-0.34375 -0.65625,-0.34375 -1.0625,-0.875 v 4.70313 z m 1.48437,-8.48438 q 0,1.85938 0.75,2.76563 0.76563,0.89062 1.82813,0.89062 1.09375,0 1.875,-0.92187 0.78125,-0.9375 0.78125,-2.875 0,-1.84375 -0.76563,-2.76563 -0.75,-0.92187 -1.8125,-0.92187 -1.04687,0 -1.85937,0.98437 -0.79688,0.96875 -0.79688,2.84375 z m 15.21948,4.78125 v -1.42187 q -1.125,1.64062 -3.0625,1.64062 -0.85937,0 -1.60937,-0.32812 -0.73438,-0.32813 -1.09375,-0.82813 -0.35938,-0.5 -0.5,-1.21875 -0.10938,-0.46875 -0.10938,-1.53125 v -5.98437 h 1.64063 v 5.35937 q 0,1.28125 0.10937,1.73438 0.15625,0.64062 0.65625,1.01562 0.5,0.375 1.23438,0.375 0.73437,0 1.375,-0.375 0.65625,-0.39062 0.92187,-1.03125 0.26563,-0.65625 0.26563,-1.89062 v -5.1875 h 1.64062 v 9.67187 z m 4.0007,0 v -13.35937 h 1.64063 v 13.35937 z m 4.14481,0 v -13.35937 h 1.64063 v 13.35937 z"
     fill-rule="nonzero"
     id="path125" />
  <path
     fill="#000000"
     fill-opacity="0"
     d="m 424,264 h 104 v 32 H 424 Z"
     fill-rule="evenodd"
     id="path127" />
  <path
     fill="#000000"
     d="m 449.03125,262.63873 q 2.67187,2.67187 2.67187,6.45312 0,3.78125 -2.67187,6.45313 -2.67188,2.67187 -6.45313,2.67187 -3.78125,0 -6.45312,-2.67187 -2.67188,-2.67188 -2.67188,-6.45313 0,-3.78125 2.67188,-6.45312 2.67187,-2.67188 6.45312,-2.67188 3.78125,0 6.45313,2.67188 z m -0.51563,12.39062 q 2.45313,-2.45312 2.45313,-5.9375 0,-3.48437 -2.45313,-5.9375 -2.45312,-2.45312 -5.9375,-2.45312 -3.48437,0 -5.9375,2.45312 -2.45312,2.45313 -2.45312,5.9375 0,3.48438 2.45312,5.9375 2.45313,2.45313 5.9375,2.45313 3.48438,0 5.9375,-2.45313 z m -3.48437,-5.85937 q -1.04688,1.25 -2.82813,1.25 -1.70312,0 -2.8125,-1.10938 -0.96875,-0.96875 -0.96875,-2.51562 0,-1.9375 1.10938,-3.04688 1.1875,-1.1875 3.04687,-1.1875 1.5625,0 2.8125,1.26563 1.34375,1.32812 1.34375,5.04687 0,4 -1.40625,5.40625 -1.26562,1.26563 -2.96875,1.26563 -1.71875,0 -2.75,-1.03125 -0.75,-0.75 -0.96875,-2.01563 H 440.5 q 0.14062,0.75 0.67187,1.26563 0.35938,0.375 1.1875,0.375 1.03125,0 1.70313,-0.67188 0.96875,-0.96875 0.96875,-3.64062 z M 442.5,263.96685 q -0.89063,0 -1.5625,0.67188 -0.73438,0.73437 -0.73438,1.92187 0,1.26563 0.73438,2.01563 0.59375,0.59375 1.64062,0.59375 0.89063,0 1.5625,-0.67188 0.65625,-0.67187 0.65625,-1.9375 0,-1.1875 -0.8125,-2 -0.59375,-0.59375 -1.48437,-0.59375 z m 14.76562,3.85938 v 1.04687 q 0,5.48438 -2.8125,8.09375 l -1.1875,-1.20312 q 2.51563,-2.8125 2.51563,-6.82813 v -7.04687 H 468.625 v 1.40625 h -11.35938 v 3.125 h 8.46875 l 0.4375,-0.375 1.26563,0.96875 q 0.51562,0.21875 -0.14063,0.51562 -1.1875,3.9375 -2.96875,5.71875 1.54688,1.26563 5.48438,2.29688 L 469,277.32623 q -3.64063,-1.10938 -5.85938,-2.89063 -2.60937,2.15625 -5.875,3.04688 l -0.65625,-1.71875 q 3.32813,-0.8125 5.26563,-2.4375 -2.23438,-2.375 -3.125,-5.5 z m 5.79688,4.45312 q 1.5625,-1.625 2.45312,-4.45312 h -5.20312 q 0.8125,2.45312 2.75,4.45312 z m 13.57812,3.71875 q 4.90625,-1.26562 5.64063,-5.64062 h -4.45313 v -1.42188 h 1.40625 v -5.26562 h 3.20313 v -3.10938 h 1.40625 q 0.59375,0.0625 0.0781,0.4375 v 2.67188 H 487.25 v 5.26562 h 1.5625 v 1.42188 h -4.75 q 1.40625,3.70312 5.34375,5.1875 l -0.8125,1.5625 q -3.71875,-1.70313 -5.26563,-5.20313 -1.34375,4.17188 -5.875,5.65625 z m 5.79688,-10.92187 h -1.71875 v 3.85937 h 1.71875 z m 3.32812,3.85937 v -3.85937 h -1.84375 v 3.85937 z m -13.28125,6.76563 V 262.1856 h 4.90625 v 12.32813 h -3.42187 v 1.1875 z m 3.42188,-8.25 v -3.85938 h -1.9375 v 3.85938 z m 0,5.64062 v -4.21875 h -1.9375 v 4.21875 z"
     fill-rule="nonzero"
     id="path129" />
  <path
     fill="#000000"
     d="m 433.92188,298.71686 1.59375,0.23437 q 0.10937,0.75 0.5625,1.07813 0.60937,0.45312 1.67187,0.45312 1.14063,0 1.75,-0.45312 0.625,-0.45313 0.84375,-1.26563 0.125,-0.5 0.10938,-2.10937 -1.0625,1.26562 -2.67188,1.26562 -2,0 -3.09375,-1.4375 -1.09375,-1.4375 -1.09375,-3.45312 0,-1.39063 0.5,-2.5625 0.51563,-1.17188 1.45313,-1.79688 0.95312,-0.64062 2.25,-0.64062 1.70312,0 2.8125,1.375 v -1.15625 h 1.51562 v 8.35937 q 0,2.26563 -0.46875,3.20313 -0.45312,0.9375 -1.45312,1.48437 -0.98438,0.54688 -2.45313,0.54688 -1.71875,0 -2.79687,-0.78125 -1.0625,-0.76563 -1.03125,-2.34375 z m 1.35937,-5.8125 q 0,1.90625 0.75,2.78125 0.76563,0.875 1.90625,0.875 1.125,0 1.89063,-0.85938 0.76562,-0.875 0.76562,-2.73437 0,-1.78125 -0.79687,-2.67188 -0.78125,-0.90625 -1.89063,-0.90625 -1.09375,0 -1.85937,0.89063 -0.76563,0.875 -0.76563,2.625 z m 9.32886,-6.45313 v -1.89062 h 1.64063 v 1.89062 z m 0,11.46875 v -9.67187 h 1.64063 v 9.67187 z m 7.72293,-1.46875 0.23438,1.45313 q -0.6875,0.14062 -1.23438,0.14062 -0.89062,0 -1.39062,-0.28125 -0.48438,-0.28125 -0.6875,-0.73437 -0.20313,-0.46875 -0.20313,-1.9375 v -5.57813 h -1.20312 v -1.26562 h 1.20312 v -2.39063 l 1.625,-0.98437 v 3.375 h 1.65625 v 1.26562 h -1.65625 v 5.67188 q 0,0.6875 0.0781,0.89062 0.0937,0.20313 0.28125,0.32813 0.20312,0.10937 0.57812,0.10937 0.26563,0 0.71875,-0.0625 z m 6.78849,5.17188 v -13.375 h 1.48437 v 1.25 q 0.53125,-0.73438 1.1875,-1.09375 0.67188,-0.375 1.625,-0.375 1.23438,0 2.17188,0.64062 0.95312,0.625 1.4375,1.79688 0.48437,1.15625 0.48437,2.54687 0,1.48438 -0.53125,2.67188 -0.53125,1.1875 -1.54687,1.82812 -1.01563,0.625 -2.14063,0.625 -0.8125,0 -1.46875,-0.34375 -0.65625,-0.34375 -1.0625,-0.875 v 4.70313 z m 1.48437,-8.48438 q 0,1.85938 0.75,2.76563 0.76563,0.89062 1.82813,0.89062 1.09375,0 1.875,-0.92187 0.78125,-0.9375 0.78125,-2.875 0,-1.84375 -0.76563,-2.76563 -0.75,-0.92187 -1.8125,-0.92187 -1.04687,0 -1.85937,0.98437 -0.79688,0.96875 -0.79688,2.84375 z m 15.21948,4.78125 v -1.42187 q -1.125,1.64062 -3.0625,1.64062 -0.85937,0 -1.60937,-0.32812 -0.73438,-0.32813 -1.09375,-0.82813 -0.35938,-0.5 -0.5,-1.21875 -0.10938,-0.46875 -0.10938,-1.53125 v -5.98437 h 1.64063 v 5.35937 q 0,1.28125 0.10937,1.73438 0.15625,0.64062 0.65625,1.01562 0.5,0.375 1.23438,0.375 0.73437,0 1.375,-0.375 0.65625,-0.39062 0.92187,-1.03125 0.26563,-0.65625 0.26563,-1.89062 v -5.1875 h 1.64062 v 9.67187 z m 3.39133,-2.89062 1.625,-0.25 q 0.125,0.96875 0.75,1.5 0.625,0.51562 1.75,0.51562 1.125,0 1.67187,-0.45312 0.54688,-0.46875 0.54688,-1.09375 0,-0.54688 -0.48438,-0.875 -0.32812,-0.21875 -1.67187,-0.54688 -1.8125,-0.46875 -2.51563,-0.79687 -0.6875,-0.32813 -1.04687,-0.90625 -0.35938,-0.59375 -0.35938,-1.3125 0,-0.64063 0.29688,-1.1875 0.29687,-0.5625 0.8125,-0.92188 0.375,-0.28125 1.03125,-0.46875 0.67187,-0.20312 1.42187,-0.20312 1.14063,0 2,0.32812 0.85938,0.32813 1.26563,0.89063 0.42187,0.5625 0.57812,1.5 l -1.60937,0.21875 q -0.10938,-0.75 -0.64063,-1.17188 -0.51562,-0.42187 -1.46875,-0.42187 -1.14062,0 -1.625,0.375 -0.46875,0.375 -0.46875,0.875 0,0.3125 0.1875,0.57812 0.20313,0.26563 0.64063,0.4375 0.23437,0.0937 1.4375,0.42188 1.75,0.45312 2.4375,0.75 0.6875,0.29687 1.07812,0.85937 0.39063,0.5625 0.39063,1.40625 0,0.82813 -0.48438,1.54688 -0.46875,0.71875 -1.375,1.125 -0.90625,0.39062 -2.04687,0.39062 -1.875,0 -2.875,-0.78125 -0.98438,-0.78125 -1.25,-2.32812 z m 9.98437,2.89062 v -13.35937 h 1.64063 v 4.79687 q 1.14062,-1.32812 2.89062,-1.32812 1.07813,0 1.85938,0.42187 0.79687,0.42188 1.14062,1.17188 0.34375,0.75 0.34375,2.17187 v 6.125 h -1.64062 v -6.125 q 0,-1.23437 -0.53125,-1.79687 -0.53125,-0.5625 -1.51563,-0.5625 -0.71875,0 -1.35937,0.39062 -0.64063,0.375 -0.92188,1.01563 -0.26562,0.64062 -0.26562,1.78125 v 5.29687 z"
     fill-rule="nonzero"
     id="path131" />
  <path
     fill="#000000"
     fill-opacity="0"
     d="M 416,224 328,368"
     fill-rule="evenodd"
     id="path133" />
  <path
     stroke="#595959"
     stroke-width="3"
     stroke-linejoin="round"
     stroke-linecap="butt"
     d="M 416,224 337.38611,352.6409"
     fill-rule="evenodd"
     id="path135" />
  <path
     fill="#595959"
     stroke="#595959"
     stroke-width="3"
     stroke-linecap="butt"
     d="m 333.15793,350.05704 -2.871,14.20071 11.32736,-9.03292 z"
     fill-rule="evenodd"
     id="path137" />
  <path
     fill="#000000"
     fill-opacity="0"
     d="m 80,448 h 176 v 48 H 80 Z"
     fill-rule="evenodd"
     id="path143" />
  <path
     fill="#000000"
     d="m 155.53125,454.63873 q 2.67187,2.67187 2.67187,6.45312 0,3.78125 -2.67187,6.45313 -2.67188,2.67187 -6.45313,2.67187 -3.78125,0 -6.45312,-2.67187 -2.67188,-2.67188 -2.67188,-6.45313 0,-3.78125 2.67188,-6.45312 2.67187,-2.67188 6.45312,-2.67188 3.78125,0 6.45313,2.67188 z m -0.51563,12.39062 q 2.45313,-2.45312 2.45313,-5.9375 0,-3.48437 -2.45313,-5.9375 -2.45312,-2.45312 -5.9375,-2.45312 -3.48437,0 -5.9375,2.45312 -2.45312,2.45313 -2.45312,5.9375 0,3.48438 2.45312,5.9375 2.45313,2.45313 5.9375,2.45313 3.48438,0 5.9375,-2.45313 z M 149,455.96685 q -1.26563,0 -1.92188,0.67188 -0.45312,0.4375 -0.45312,1.1875 0,0.8125 0.375,1.1875 0.73437,0.73437 2,0.73437 1.26562,0 2,-0.73437 0.375,-0.375 0.375,-1.1875 0,-0.75 -0.4375,-1.1875 -0.67188,-0.67188 -1.9375,-0.67188 z m 1.85937,4.45313 q 0.8125,0.29687 1.48438,0.96875 0.89062,0.89062 0.89062,2.15625 0,1.625 -1.1875,2.8125 Q 151,467.40435 149,467.40435 q -2.07813,0 -3.10938,-1.04687 -1.125,-1.10938 -1.125,-2.8125 0,-1.26563 0.89063,-2.15625 0.67187,-0.67188 1.48437,-0.96875 -0.73437,-0.14063 -1.32812,-0.73438 Q 145,458.85748 145,457.82623 q 0,-1.1875 0.89062,-2.07813 1.1875,-1.1875 3.10938,-1.1875 2,0 3.1875,1.1875 0.82812,0.8125 0.82812,2.07813 0,1.03125 -0.82812,1.85937 -0.51563,0.51563 -1.32813,0.73438 z M 149,461.23248 q -1.26563,0 -1.92188,0.67187 -0.67187,0.67188 -0.67187,1.64063 0,0.95312 0.67187,1.625 0.65625,0.67187 1.92188,0.67187 1.26562,0 1.9375,-0.67187 0.59375,-0.59375 0.59375,-1.625 0,-0.96875 -0.67188,-1.64063 Q 150.1875,461.23248 149,461.23248 Z m 10.76562,6.17187 q 0.67188,-1.78125 0.67188,-4.45312 l 1.48437,0.14062 q 0.29688,0.15625 -0.15625,0.51563 -0.0781,2.67187 -0.73437,4.39062 z m 0.375,-11.57812 0.65625,0.35937 q 1.26563,-1.84375 2.15625,-3.70312 l 1.34375,0.96875 q 0.29688,0.21875 -0.29687,0.29687 l -2.15625,3.10938 1.10937,0.8125 1.9375,-2.96875 1.25,1.125 q 0.29688,0.29687 -0.35937,0.21875 l -3.26563,4.45312 2.51563,-0.15625 q -0.14063,-0.73437 -0.67188,-1.48437 l 1.26563,-0.4375 q 0.96875,1.32812 1.34375,3.34375 l -1.34375,0.4375 -0.21875,-0.8125 -1.48438,0.14062 v 8.03125 h -1.48437 v -7.875 l -2.45313,0.21875 q -0.0781,0.51563 -0.375,0.21875 l -0.4375,-1.625 h 1.70313 l 1.34375,-1.70312 q -1.26563,-1.04688 -2.82813,-1.78125 z m 8.07813,7.9375 q -0.51563,2.67187 -2.375,4.60937 l -1.03125,-0.90625 q 2.45312,-2.67187 2.45312,-6.23437 v -5.40625 h 8.3125 v 3.92187 h -7.0625 v 1.34375 h 7.71875 v 7.28125 q 0,1.1875 -0.89062,1.1875 h -0.89063 l -0.21875,-1.1875 H 174.75 q 0.23437,0 0.23437,-0.23437 v -2.51563 h -1.125 v 3.40625 h -1.25 v -3.40625 h -0.89062 v 3.40625 h -1.26563 v -3.40625 h -0.96875 v 3.85938 h -1.26562 z m -2.73438,-1.04688 q 0.73438,1.125 0.73438,2.45313 l -1.1875,0.45312 q -0.0781,-1.42187 -0.73438,-2.45312 z m 8.375,-0.4375 v 2.15625 h 1.125 v -2.15625 z m -2.14062,0 v 2.15625 h 0.89062 v -2.15625 z m -2.23438,0 v 2.15625 h 0.96875 v -2.15625 z m -0.96875,-5.26562 v 1.54687 h 5.79688 v -1.54687 z m 7.65625,-2.45313 h -9.65625 v -1.40625 h 9.65625 z m 7.71875,-1.26562 q -0.23437,0.67187 -0.82812,1.26562 h 3.64062 q 0.51563,-1.1875 0.75,-1.9375 l 1.48438,0.29688 q 0.29687,0.29687 -0.23438,0.375 l -0.59375,1.26562 h 5.9375 v 1.1875 h -6.15625 v 0.96875 h 4.96875 v 1.1875 h -4.96875 v 0.95313 h 4.96875 v 1.1875 h -4.96875 v 1.125 h 6.6875 v 1.1875 h -6.6875 v 1.10937 h 7.28125 v 1.40625 H 189.375 q 2.375,1.70313 6.09375,2.53125 l -0.53125,1.48438 q -4.15625,-1.04688 -7.04688,-3.71875 v 4.39062 h -1.48437 v -4.3125 q -2.29688,2.375 -7.34375,3.85938 l -0.51563,-1.40625 q 3.78125,-0.96875 6.375,-2.82813 h -5.9375 v -1.40625 h 7.42188 v -1.10937 h -2.59375 -2.59375 v -5.28125 q -0.67188,0.75 -1.64063,1.48437 l -0.8125,-1.03125 q 2.8125,-2.29687 3.9375,-5.04687 l 1.40625,0.4375 q 0.29688,0.29687 -0.21875,0.375 z m -1.42187,6.75 v 1.125 h 3.9375 v -1.125 z m 0,-2.14063 v 0.95313 h 3.9375 v -0.95313 z m 0,-2.15625 v 0.96875 h 3.9375 v -0.96875 z"
     fill-rule="nonzero"
     id="path145" />
  <path
     fill="#000000"
     d="m 93.231064,490.71686 1.59375,0.23437 q 0.109375,0.75 0.5625,1.07813 0.609375,0.45312 1.671875,0.45312 1.140625,0 1.75,-0.45312 0.625,-0.45313 0.84375,-1.26563 0.125,-0.5 0.109375,-2.10937 -1.0625,1.26562 -2.671875,1.26562 -2,0 -3.09375,-1.4375 -1.09375,-1.4375 -1.09375,-3.45312 0,-1.39063 0.5,-2.5625 0.515625,-1.17188 1.453125,-1.79688 0.953125,-0.64062 2.25,-0.64062 1.703125,0 2.8125,1.375 v -1.15625 h 1.515626 v 8.35937 q 0,2.26563 -0.46875,3.20313 -0.45313,0.9375 -1.453126,1.48437 -0.984375,0.54688 -2.453125,0.54688 -1.71875,0 -2.796875,-0.78125 -1.0625,-0.76563 -1.03125,-2.34375 z m 1.359375,-5.8125 q 0,1.90625 0.75,2.78125 0.765625,0.875 1.90625,0.875 1.125,0 1.890625,-0.85938 0.765625,-0.875 0.765625,-2.73437 0,-1.78125 -0.796875,-2.67188 -0.78125,-0.90625 -1.890625,-0.90625 -1.09375,0 -1.859375,0.89063 -0.765625,0.875 -0.765625,2.625 z m 9.328841,-6.45313 v -1.89062 h 1.64063 v 1.89062 z m 0,11.46875 v -9.67187 h 1.64063 v 9.67187 z m 7.72295,-1.46875 0.23437,1.45313 q -0.6875,0.14062 -1.23437,0.14062 -0.89063,0 -1.39063,-0.28125 -0.48437,-0.28125 -0.6875,-0.73437 -0.20312,-0.46875 -0.20312,-1.9375 v -5.57813 h -1.20313 v -1.26562 h 1.20313 v -2.39063 l 1.625,-0.98437 v 3.375 h 1.65625 v 1.26562 h -1.65625 v 5.67188 q 0,0.6875 0.0781,0.89062 0.0937,0.20313 0.28125,0.32813 0.20313,0.10937 0.57813,0.10937 0.26562,0 0.71875,-0.0625 z m 13.10098,0.28125 q -0.92188,0.76563 -1.76563,1.09375 -0.82812,0.3125 -1.79687,0.3125 -1.59375,0 -2.45313,-0.78125 -0.85937,-0.78125 -0.85937,-1.98437 0,-0.71875 0.32812,-1.29688 0.32813,-0.59375 0.84375,-0.9375 0.53125,-0.35937 1.1875,-0.54687 0.46875,-0.125 1.45313,-0.25 1.98437,-0.23438 2.92187,-0.5625 0.0156,-0.34375 0.0156,-0.42188 0,-1 -0.46875,-1.42187 -0.625,-0.54688 -1.875,-0.54688 -1.15625,0 -1.70313,0.40625 -0.54687,0.40625 -0.8125,1.42188 l -1.60937,-0.21875 q 0.21875,-1.01563 0.71875,-1.64063 0.5,-0.64062 1.45312,-0.98437 0.95313,-0.34375 2.1875,-0.34375 1.25,0 2.01563,0.29687 0.78125,0.28125 1.14062,0.73438 0.375,0.4375 0.51563,1.10937 0.0781,0.42188 0.0781,1.51563 v 2.1875 q 0,2.28125 0.10938,2.89062 0.10937,0.59375 0.40625,1.15625 h -1.70313 q -0.26562,-0.51562 -0.32812,-1.1875 z m -0.14063,-3.67187 q -0.89062,0.375 -2.67187,0.625 -1.01563,0.14062 -1.4375,0.32812 -0.42188,0.1875 -0.65625,0.53125 -0.21875,0.34375 -0.21875,0.78125 0,0.65625 0.5,1.09375 0.5,0.4375 1.45312,0.4375 0.9375,0 1.67188,-0.40625 0.75,-0.42187 1.09375,-1.14062 0.26562,-0.5625 0.26562,-1.64063 z m 10.46947,4.85937 v -1.21875 q -0.90625,1.4375 -2.70312,1.4375 -1.15625,0 -2.125,-0.64062 -0.96875,-0.64063 -1.5,-1.78125 -0.53125,-1.14063 -0.53125,-2.625 0,-1.45313 0.48437,-2.625 0.48438,-1.1875 1.4375,-1.8125 0.96875,-0.625 2.17188,-0.625 0.875,0 1.54687,0.375 0.6875,0.35937 1.10938,0.95312 v -4.79687 h 1.64062 v 13.35937 z m -5.17187,-4.82812 q 0,1.85937 0.78125,2.78125 0.78125,0.92187 1.84375,0.92187 1.07812,0 1.82812,-0.875 0.75,-0.89062 0.75,-2.6875 0,-1.98437 -0.76562,-2.90625 -0.76563,-0.9375 -1.89063,-0.9375 -1.07812,0 -1.8125,0.89063 -0.73437,0.89062 -0.73437,2.8125 z m 15.54759,4.82812 v -1.21875 q -0.90625,1.4375 -2.70313,1.4375 -1.15625,0 -2.125,-0.64062 -0.96875,-0.64063 -1.5,-1.78125 -0.53125,-1.14063 -0.53125,-2.625 0,-1.45313 0.48438,-2.625 0.48437,-1.1875 1.4375,-1.8125 0.96875,-0.625 2.17187,-0.625 0.875,0 1.54688,0.375 0.6875,0.35937 1.10937,0.95312 v -4.79687 h 1.64063 v 13.35937 z m -5.17188,-4.82812 q 0,1.85937 0.78125,2.78125 0.78125,0.92187 1.84375,0.92187 1.07813,0 1.82813,-0.875 0.75,-0.89062 0.75,-2.6875 0,-1.98437 -0.76563,-2.90625 -0.76562,-0.9375 -1.89062,-0.9375 -1.07813,0 -1.8125,0.89063 -0.73438,0.89062 -0.73438,2.8125 z m 9.70385,4.82812 v -1.875 h 1.875 v 1.875 q 0,1.03125 -0.375,1.65625 -0.35938,0.64063 -1.15625,0.98438 l -0.45313,-0.70313 q 0.51563,-0.21875 0.76563,-0.67187 0.25,-0.4375 0.28125,-1.26563 z m 9.63223,0.79688 1.59375,0.23437 q 0.10937,0.75 0.5625,1.07813 0.60937,0.45312 1.67187,0.45312 1.14063,0 1.75,-0.45312 0.625,-0.45313 0.84375,-1.26563 0.125,-0.5 0.10938,-2.10937 -1.0625,1.26562 -2.67188,1.26562 -2,0 -3.09375,-1.4375 -1.09375,-1.4375 -1.09375,-3.45312 0,-1.39063 0.5,-2.5625 0.51563,-1.17188 1.45313,-1.79688 0.95312,-0.64062 2.25,-0.64062 1.70312,0 2.8125,1.375 v -1.15625 h 1.51562 v 8.35937 q 0,2.26563 -0.46875,3.20313 -0.45312,0.9375 -1.45312,1.48437 -0.98438,0.54688 -2.45313,0.54688 -1.71875,0 -2.79687,-0.78125 -1.0625,-0.76563 -1.03125,-2.34375 z m 1.35937,-5.8125 q 0,1.90625 0.75,2.78125 0.76563,0.875 1.90625,0.875 1.125,0 1.89063,-0.85938 0.76562,-0.875 0.76562,-2.73437 0,-1.78125 -0.79687,-2.67188 -0.78125,-0.90625 -1.89063,-0.90625 -1.09375,0 -1.85937,0.89063 -0.76563,0.875 -0.76563,2.625 z m 9.32885,-6.45313 v -1.89062 h 1.64062 v 1.89062 z m 0,11.46875 v -9.67187 h 1.64062 v 9.67187 z m 7.72294,-1.46875 0.23438,1.45313 q -0.6875,0.14062 -1.23438,0.14062 -0.89062,0 -1.39062,-0.28125 -0.48438,-0.28125 -0.6875,-0.73437 -0.20313,-0.46875 -0.20313,-1.9375 v -5.57813 h -1.20312 v -1.26562 h 1.20312 v -2.39063 l 1.625,-0.98437 v 3.375 h 1.65625 v 1.26562 h -1.65625 v 5.67188 q 0,0.6875 0.0781,0.89062 0.0937,0.20313 0.28125,0.32813 0.20312,0.10937 0.57812,0.10937 0.26563,0 0.71875,-0.0625 z m 13.10099,-2.07812 1.60937,0.21875 q -0.26562,1.65625 -1.35937,2.60937 -1.07813,0.9375 -2.67188,0.9375 -1.98437,0 -3.1875,-1.29687 -1.20312,-1.29688 -1.20312,-3.71875 0,-1.57813 0.51562,-2.75 0.51563,-1.17188 1.57813,-1.75 1.0625,-0.59375 2.3125,-0.59375 1.57812,0 2.57812,0.79687 1,0.79688 1.28125,2.26563 l -1.59375,0.23437 q -0.23437,-0.96875 -0.8125,-1.45312 -0.57812,-0.5 -1.39062,-0.5 -1.23438,0 -2.01563,0.89062 -0.78125,0.89063 -0.78125,2.8125 0,1.95313 0.75,2.84375 0.75,0.875 1.95313,0.875 0.96875,0 1.60937,-0.59375 0.65625,-0.59375 0.82813,-1.82812 z m 2.40625,-1.29688 q 0,-2.6875 1.48437,-3.96875 1.25,-1.07812 3.04688,-1.07812 2,0 3.26562,1.3125 1.26563,1.29687 1.26563,3.60937 0,1.85938 -0.5625,2.9375 -0.5625,1.0625 -1.64063,1.65625 -1.0625,0.59375 -2.32812,0.59375 -2.03125,0 -3.28125,-1.29687 -1.25,-1.3125 -1.25,-3.76563 z m 1.6875,0 q 0,1.85938 0.79687,2.79688 0.8125,0.92187 2.04688,0.92187 1.21875,0 2.03125,-0.92187 0.8125,-0.9375 0.8125,-2.84375 0,-1.79688 -0.8125,-2.71875 -0.8125,-0.92188 -2.03125,-0.92188 -1.23438,0 -2.04688,0.92188 -0.79687,0.90625 -0.79687,2.76562 z m 9.29759,4.84375 v -9.67187 h 1.46875 v 1.35937 q 0.45312,-0.71875 1.20312,-1.14062 0.76563,-0.4375 1.71875,-0.4375 1.07813,0 1.76563,0.45312 0.6875,0.4375 0.96875,1.23438 1.15625,-1.6875 2.98437,-1.6875 1.45313,0 2.21875,0.79687 0.78125,0.79688 0.78125,2.45313 v 6.64062 h -1.64062 v -6.09375 q 0,-0.98437 -0.15625,-1.40625 -0.15625,-0.4375 -0.57813,-0.70312 -0.42187,-0.26563 -0.98437,-0.26563 -1.01563,0 -1.6875,0.6875 -0.67188,0.67188 -0.67188,2.15625 v 5.625 h -1.64062 v -6.28125 q 0,-1.09375 -0.40625,-1.64062 -0.40625,-0.54688 -1.3125,-0.54688 -0.6875,0 -1.28125,0.35938 -0.59375,0.35937 -0.85938,1.0625 -0.25,0.70312 -0.25,2.03125 v 5.01562 z m 15.5408,0 v -9.67187 h 1.46875 v 1.35937 q 0.45312,-0.71875 1.20312,-1.14062 0.76563,-0.4375 1.71875,-0.4375 1.07813,0 1.76563,0.45312 0.6875,0.4375 0.96875,1.23438 1.15625,-1.6875 2.98437,-1.6875 1.45313,0 2.21875,0.79687 0.78125,0.79688 0.78125,2.45313 v 6.64062 h -1.64062 v -6.09375 q 0,-0.98437 -0.15625,-1.40625 -0.15625,-0.4375 -0.57813,-0.70312 -0.42187,-0.26563 -0.98437,-0.26563 -1.01563,0 -1.6875,0.6875 -0.67188,0.67188 -0.67188,2.15625 v 5.625 h -1.64062 v -6.28125 q 0,-1.09375 -0.40625,-1.64062 -0.40625,-0.54688 -1.3125,-0.54688 -0.6875,0 -1.28125,0.35938 -0.59375,0.35937 -0.85938,1.0625 -0.25,0.70312 -0.25,2.03125 v 5.01562 z m 15.5408,-11.46875 v -1.89062 h 1.64063 v 1.89062 z m 0,11.46875 v -9.67187 h 1.64063 v 9.67187 z m 7.72295,-1.46875 0.23437,1.45313 q -0.6875,0.14062 -1.23437,0.14062 -0.89063,0 -1.39063,-0.28125 -0.48437,-0.28125 -0.6875,-0.73437 -0.20312,-0.46875 -0.20312,-1.9375 v -5.57813 h -1.20313 v -1.26562 h 1.20313 v -2.39063 l 1.625,-0.98437 v 3.375 h 1.65625 v 1.26562 h -1.65625 v 5.67188 q 0,0.6875 0.0781,0.89062 0.0937,0.20313 0.28125,0.32813 0.20313,0.10937 0.57813,0.10937 0.26562,0 0.71875,-0.0625 z"
     fill-rule="nonzero"
     id="path147" />
</svg>
